<svg xmlns="http://www.w3.org/2000/svg" width="78.881" height="34.449" viewBox="0 0 78.881 34.449">
  <g id="Grupo_808" data-name="Grupo 808" transform="translate(-230.41 -550.199)">
    <path id="Trazado_776" data-name="Trazado 776" d="M244.867,570.9a4.943,4.943,0,0,1-3.774-1.646,5.959,5.959,0,0,1,0-7.957,4.948,4.948,0,0,1,3.774-1.643,4.766,4.766,0,0,1,2.217.531,4.213,4.213,0,0,1,1.591,1.352v-1.666h1.86v10.814h-1.86v-1.666a4.215,4.215,0,0,1-1.591,1.352,4.767,4.767,0,0,1-2.217.53m.282-1.709a3.434,3.434,0,0,0,2.638-1.125,4.267,4.267,0,0,0,0-5.579,3.684,3.684,0,0,0-5.3,0,4.267,4.267,0,0,0,0,5.579,3.463,3.463,0,0,0,2.661,1.125" transform="translate(11.691 12.059)" fill="#00a5e6"/>
    <path id="Trazado_777" data-name="Trazado 777" d="M251.372,573.8a4.767,4.767,0,0,1-2.217-.53,4.215,4.215,0,0,1-1.591-1.352v1.666H245.7V557.369h1.86v7.072a4.214,4.214,0,0,1,1.591-1.352,4.767,4.767,0,0,1,2.217-.53,4.948,4.948,0,0,1,3.774,1.643,5.959,5.959,0,0,1,0,7.957,4.943,4.943,0,0,1-3.774,1.646m-2.92-2.834a3.657,3.657,0,0,0,5.276,0,4.267,4.267,0,0,0,0-5.579,3.657,3.657,0,0,0-5.276,0,4.267,4.267,0,0,0,0,5.579" transform="translate(19.517 9.149)" fill="#00a5e6"/>
    <path id="Trazado_778" data-name="Trazado 778" d="M255.726,570.9a5.034,5.034,0,0,1-3.039-.888,3.218,3.218,0,0,1-1.352-2.465h1.9a1.906,1.906,0,0,0,.876,1.341,3.048,3.048,0,0,0,1.634.432,2.738,2.738,0,0,0,1.5-.366,1.186,1.186,0,0,0,.574-1.061,1.408,1.408,0,0,0-.423-1.058,3.155,3.155,0,0,0-1.372-.672l-1.557-.41q-2.789-.738-2.79-3.18a2.536,2.536,0,0,1,1.049-2.119,4.322,4.322,0,0,1,2.693-.8,4.188,4.188,0,0,1,2.736.876,3.166,3.166,0,0,1,1.2,2.217H257.5a2.087,2.087,0,0,0-2.076-1.536,2.272,2.272,0,0,0-1.329.369,1.128,1.128,0,0,0-.53.972,1.252,1.252,0,0,0,.389.954,3,3,0,0,0,1.254.605l1.73.453q2.769.693,2.768,3.2a2.7,2.7,0,0,1-1.1,2.347,4.839,4.839,0,0,1-2.877.79" transform="translate(26.703 12.059)" fill="#00a5e6"/>
    <path id="Trazado_779" data-name="Trazado 779" d="M260.163,570.9a5.034,5.034,0,0,1-3.039-.888,3.218,3.218,0,0,1-1.352-2.465h1.9a1.906,1.906,0,0,0,.876,1.341,3.048,3.048,0,0,0,1.634.432,2.738,2.738,0,0,0,1.5-.366,1.186,1.186,0,0,0,.574-1.061,1.408,1.408,0,0,0-.423-1.058,3.156,3.156,0,0,0-1.372-.672l-1.557-.41q-2.789-.738-2.79-3.18a2.536,2.536,0,0,1,1.049-2.119,4.322,4.322,0,0,1,2.693-.8,4.188,4.188,0,0,1,2.736.876,3.166,3.166,0,0,1,1.2,2.217h-1.86a2.087,2.087,0,0,0-2.076-1.536,2.272,2.272,0,0,0-1.329.369,1.128,1.128,0,0,0-.53.972,1.253,1.253,0,0,0,.389.954,3,3,0,0,0,1.254.605l1.73.453q2.769.693,2.768,3.2a2.7,2.7,0,0,1-1.1,2.347,4.839,4.839,0,0,1-2.877.79" transform="translate(32.365 12.059)" fill="#00a5e6"/>
    <path id="Trazado_780" data-name="Trazado 780" d="M265.534,570.9a4.938,4.938,0,0,1-3.772-1.646,5.953,5.953,0,0,1,0-7.957,4.943,4.943,0,0,1,3.772-1.643,4.766,4.766,0,0,1,2.217.531,4.213,4.213,0,0,1,1.591,1.352v-1.666H271.2v10.814h-1.862v-1.666a4.215,4.215,0,0,1-1.591,1.352,4.767,4.767,0,0,1-2.217.53m.285-1.709a3.438,3.438,0,0,0,2.638-1.125,4.267,4.267,0,0,0,0-5.579,3.684,3.684,0,0,0-5.3,0,4.267,4.267,0,0,0,0,5.579,3.459,3.459,0,0,0,2.661,1.125" transform="translate(38.064 12.059)" fill="#00a5e6"/>
    <path id="Trazado_781" data-name="Trazado 781" d="M236.16,578.409c-1.794-6.28,16.984-16.663,41.944-23.2a146.533,146.533,0,0,1,31.187-4.994c-8.961-.216-23.255,1.9-35.5,4.636-25.237,5.622-45.347,16.06-43.228,23.762.913,3.31,9.389,6.321,19.1,6.013-7.527-.18-12.685-3.348-13.5-6.218" transform="translate(0 0)" fill="#00a5e6"/>
  </g>
</svg>
