<?xml version="1.0" encoding="utf-8"?>
<!-- Generator: Adobe Illustrator 26.3.1, SVG Export Plug-In . SVG Version: 6.00 Build 0)  -->
<svg version="1.1" id="Capa_1" xmlns="http://www.w3.org/2000/svg" xmlns:xlink="http://www.w3.org/1999/xlink" x="0px" y="0px"
	 viewBox="0 0 48 34" style="enable-background:new 0 0 48 34;" xml:space="preserve">
<style type="text/css">
	.st0{fill:#FFFFFF;}
	.st1{fill:#F22403;}
	.st2{fill:#011174;}
</style>
<g>
	<rect x="0" y="30.3" class="st0" width="48.1" height="1.9"/>
	<rect x="0" y="26.1" class="st0" width="48.1" height="2.1"/>
	<rect x="0" y="32.2" class="st1" width="48.1" height="2.1"/>
	<rect x="0" y="28.1" class="st1" width="48.1" height="2.1"/>
	<rect x="0" y="21.6" class="st0" width="48.1" height="2.3"/>
	<polygon class="st0" points="0,13.6 0,15.3 48.1,15.3 48.1,13.6 18.2,13.6 	"/>
	<rect x="0" y="17.5" class="st0" width="48.1" height="2"/>
	<rect x="18.2" y="1.9" class="st0" width="29.9" height="1.5"/>
	<rect x="18.2" y="9.5" class="st0" width="29.9" height="2"/>
	<rect x="18.2" y="5.5" class="st0" width="29.9" height="1.9"/>
	<polygon class="st1" points="0,24.5 0,26.1 48.1,26.1 48.1,24.5 48.1,23.9 0,23.9 	"/>
	<rect x="0" y="19.5" class="st1" width="48.1" height="2.1"/>
	<rect x="0" y="15.3" class="st1" width="48.1" height="2.1"/>
	<rect x="18.2" y="11.5" class="st1" width="29.9" height="2.1"/>
	<rect x="18.2" y="7.4" class="st1" width="29.9" height="2.1"/>
	<rect x="18.2" y="3.3" class="st1" width="29.9" height="2.1"/>
	<rect x="18.2" y="0" class="st1" width="29.9" height="1.9"/>
	<path class="st2" d="M18.2,11.5v-2V7.4V5.5V3.3V1.9V0H0v1.9v1.5v2.1v1.9v2.1v2v2.1h18.2V11.5z M16.3,1l0.2-0.4L16.7,1L17.1,1
		l-0.3,0.3l0.1,0.4l-0.4-0.2l-0.4,0.2l0.1-0.4L15.9,1L16.3,1z M13.3,1l0.2-0.4L13.7,1L14.1,1l-0.3,0.3l0.1,0.4l-0.4-0.2l-0.4,0.2
		l0.1-0.4L12.9,1L13.3,1z M10.3,1l0.2-0.4L10.7,1L11.1,1l-0.3,0.3l0.1,0.4l-0.4-0.2l-0.4,0.2l0.1-0.4L9.9,1L10.3,1z M7.3,1l0.2-0.4
		L7.7,1L8.1,1L7.8,1.3l0.1,0.4L7.5,1.6L7.1,1.8l0.1-0.4L6.9,1L7.3,1z M4.3,1l0.2-0.4L4.7,1L5.1,1L4.8,1.3l0.1,0.4L4.5,1.6L4.1,1.8
		l0.1-0.4L3.9,1L4.3,1z M1.3,1l0.2-0.4L1.7,1L2.1,1L1.8,1.3l0.1,0.4L1.5,1.6L1.1,1.8l0.1-0.4L0.9,1L1.3,1z M3.5,3.1L3.1,2.9L2.7,3.1
		l0.1-0.4L2.5,2.4l0.4-0.1L3.1,2l0.2,0.4l0.4,0.1L3.4,2.7L3.5,3.1z M6.5,3.1L6.1,2.9L5.7,3.1l0.1-0.4L5.5,2.4l0.4-0.1L6.1,2l0.2,0.4
		l0.4,0.1L6.4,2.7L6.5,3.1z M9.5,3.1L9.1,2.9L8.7,3.1l0.1-0.4L8.5,2.4l0.4-0.1L9.1,2l0.2,0.4l0.4,0.1L9.4,2.7L9.5,3.1z M12.5,3.1
		l-0.4-0.2l-0.4,0.2l0.1-0.4l-0.3-0.3l0.4-0.1L12.1,2l0.2,0.4l0.4,0.1l-0.3,0.3L12.5,3.1z M15.5,3.1l-0.4-0.2l-0.4,0.2l0.1-0.4
		l-0.3-0.3l0.4-0.1L15.1,2l0.2,0.4l0.4,0.1l-0.3,0.3L15.5,3.1z M1.9,7.3L1.5,7.1L1.1,7.3l0.1-0.4L0.9,6.5l0.4-0.1l0.2-0.4l0.2,0.4
		l0.4,0.1L1.8,6.8L1.9,7.3z M4.9,4.5L4.5,4.3L4.1,4.5l0.1-0.4L3.9,3.8l0.4-0.1l0.2-0.4l0.2,0.4l0.4,0.1L4.8,4.1L4.9,4.5z M5.5,5.2
		l0.4-0.1l0.2-0.4l0.2,0.4l0.4,0.1L6.4,5.5l0,0l0.1,0.4L6.1,5.7L5.7,5.9l0.1-0.4l0,0L5.5,5.2z M7.9,4.5L7.5,4.3L7.1,4.5l0.1-0.4
		L6.9,3.8l0.4-0.1l0.2-0.4l0.2,0.4l0.4,0.1L7.8,4.1L7.9,4.5z M8.5,5.2l0.4-0.1l0.2-0.4l0.2,0.4l0.4,0.1L9.4,5.5l0,0l0.1,0.4L9.1,5.7
		L8.7,5.9l0.1-0.4l0,0L8.5,5.2z M10.9,4.5l-0.4-0.2l-0.4,0.2l0.1-0.4L9.9,3.8l0.4-0.1l0.2-0.4l0.2,0.4l0.4,0.1l-0.3,0.3L10.9,4.5z
		 M11.5,5.2l0.4-0.1l0.2-0.4l0.2,0.4l0.4,0.1l-0.3,0.3l0,0l0.1,0.4l-0.4-0.2l-0.4,0.2l0.1-0.4l0,0L11.5,5.2z M13.9,4.5l-0.4-0.2
		l-0.4,0.2l0.1-0.4l-0.3-0.3l0.4-0.1l0.2-0.4l0.2,0.4l0.4,0.1l-0.3,0.3L13.9,4.5z M13.9,7.3l-0.4-0.2l-0.4,0.2l0.1-0.4l-0.3-0.3
		l0.4-0.1l0.2-0.4l0.2,0.4l0.4,0.1l-0.3,0.3L13.9,7.3z M10.9,7.3l-0.4-0.2l-0.4,0.2l0.1-0.4L9.9,6.5l0.4-0.1l0.2-0.4l0.2,0.4
		l0.4,0.1l-0.3,0.3L10.9,7.3z M7.9,7.3L7.5,7.1L7.1,7.3l0.1-0.4L6.9,6.5l0.4-0.1l0.2-0.4l0.2,0.4l0.4,0.1L7.8,6.8L7.9,7.3z M4.3,6.5
		l0.2-0.4l0.2,0.4l0.4,0.1L4.8,6.8l0.1,0.4L4.5,7.1L4.1,7.3l0.1-0.4L3.9,6.5L4.3,6.5z M16.9,7.3l-0.4-0.2l-0.4,0.2l0.1-0.4l-0.3-0.3
		l0.4-0.1l0.2-0.4l0.2,0.4l0.4,0.1l-0.3,0.3L16.9,7.3z M15.5,5.9l-0.4-0.2l-0.4,0.2l0.1-0.4l0,0l-0.3-0.3l0.4-0.1l0.2-0.4l0.2,0.4
		l0.4,0.1l-0.3,0.3l0,0L15.5,5.9z M16.9,4.5l-0.4-0.2l-0.4,0.2l0.1-0.4l-0.3-0.3l0.4-0.1l0.2-0.4l0.2,0.4l0.4,0.1l-0.3,0.3L16.9,4.5
		z M1.9,4.5L1.5,4.3L1.1,4.5l0.1-0.4L0.9,3.8l0.4-0.1l0.2-0.4l0.2,0.4l0.4,0.1L1.8,4.1L1.9,4.5z M2.5,5.2l0.4-0.1l0.2-0.4l0.2,0.4
		l0.4,0.1L3.4,5.5l0,0l0.1,0.4L3.1,5.7L2.7,5.9l0.1-0.4l0,0L2.5,5.2z M3.5,8.6L3.1,8.4L2.7,8.6l0.1-0.4L2.5,7.9l0.4-0.1l0.2-0.4
		l0.2,0.4l0.4,0.1L3.4,8.2L3.5,8.6z M3.9,9.3l0.4-0.1l0.2-0.4l0.2,0.4l0.4,0.1L4.9,9.5L4.8,9.6L4.9,10L4.5,9.8L4.1,10l0.1-0.4
		L4.1,9.5L3.9,9.3z M6.5,8.6L6.1,8.4L5.7,8.6l0.1-0.4L5.5,7.9l0.4-0.1l0.2-0.4l0.2,0.4l0.4,0.1L6.4,8.2L6.5,8.6z M6.9,9.3l0.4-0.1
		l0.2-0.4l0.2,0.4l0.4,0.1L7.9,9.5L7.8,9.6L7.9,10L7.5,9.8L7.1,10l0.1-0.4L7.1,9.5L6.9,9.3z M9.5,8.6L9.1,8.4L8.7,8.6l0.1-0.4
		L8.5,7.9l0.4-0.1l0.2-0.4l0.2,0.4l0.4,0.1L9.4,8.2L9.5,8.6z M9.9,9.3l0.4-0.1l0.2-0.4l0.2,0.4l0.4,0.1l-0.2,0.2l-0.1,0.1l0.1,0.4
		l-0.4-0.2L10.1,10l0.1-0.4l-0.1-0.1L9.9,9.3z M12.5,8.6l-0.4-0.2l-0.4,0.2l0.1-0.4l-0.3-0.3l0.4-0.1l0.2-0.4l0.2,0.4l0.4,0.1
		l-0.3,0.3L12.5,8.6z M12.9,9.3l0.4-0.1l0.2-0.4l0.2,0.4l0.4,0.1l-0.2,0.2l-0.1,0.1l0.1,0.4l-0.4-0.2L13.1,10l0.1-0.4l-0.1-0.1
		L12.9,9.3z M15.5,8.6l-0.4-0.2l-0.4,0.2l0.1-0.4l-0.3-0.3l0.4-0.1l0.2-0.4l0.2,0.4l0.4,0.1l-0.3,0.3L15.5,8.6z M15.5,11.4l-0.4-0.2
		l-0.4,0.2l0.1-0.4l-0.3-0.3l0.4-0.1l0.2-0.4l0.2,0.4l0.4,0.1L15.4,11L15.5,11.4z M12.5,11.4l-0.4-0.2l-0.4,0.2l0.1-0.4l-0.3-0.3
		l0.4-0.1l0.2-0.4l0.2,0.4l0.4,0.1L12.4,11L12.5,11.4z M9.5,11.4l-0.4-0.2l-0.4,0.2L8.8,11l-0.3-0.3l0.4-0.1l0.2-0.4l0.2,0.4
		l0.4,0.1L9.4,11L9.5,11.4z M6.5,11.4l-0.4-0.2l-0.4,0.2L5.8,11l-0.3-0.3l0.4-0.1l0.2-0.4l0.2,0.4l0.4,0.1L6.4,11L6.5,11.4z
		 M2.9,10.6l0.2-0.4l0.2,0.4l0.4,0.1L3.4,11l0.1,0.4l-0.4-0.2l-0.4,0.2L2.8,11l-0.3-0.3L2.9,10.6z M16.9,10l-0.4-0.2L16.1,10
		l0.1-0.4l-0.1-0.1l-0.2-0.2l0.4-0.1l0.2-0.4l0.2,0.4l0.4,0.1l-0.2,0.2l-0.1,0.1L16.9,10z M0.9,9.3l0.4-0.1l0.2-0.4l0.2,0.4l0.4,0.1
		L1.9,9.5L1.8,9.6L1.9,10L1.5,9.8L1.1,10l0.1-0.4L1.1,9.5L0.9,9.3z M1.9,12.8l-0.4-0.2l-0.4,0.2l0.1-0.4L0.9,12L1.3,12l0.2-0.4
		L1.7,12L2.1,12l-0.3,0.3L1.9,12.8z M4.9,12.8l-0.4-0.2l-0.4,0.2l0.1-0.4L3.9,12L4.3,12l0.2-0.4L4.7,12L5.1,12l-0.3,0.3L4.9,12.8z
		 M7.9,12.8l-0.4-0.2l-0.4,0.2l0.1-0.4L6.9,12L7.3,12l0.2-0.4L7.7,12L8.1,12l-0.3,0.3L7.9,12.8z M10.9,12.8l-0.4-0.2l-0.4,0.2
		l0.1-0.4L9.9,12l0.4-0.1l0.2-0.4l0.2,0.4l0.4,0.1l-0.3,0.3L10.9,12.8z M13.9,12.8l-0.4-0.2l-0.4,0.2l0.1-0.4L12.9,12l0.4-0.1
		l0.2-0.4l0.2,0.4l0.4,0.1l-0.3,0.3L13.9,12.8z M16.9,12.8l-0.4-0.2l-0.4,0.2l0.1-0.4L15.9,12l0.4-0.1l0.2-0.4l0.2,0.4l0.4,0.1
		l-0.3,0.3L16.9,12.8z"/>
	<polygon class="st0" points="1.1,1.8 1.5,1.6 1.9,1.8 1.8,1.3 2.1,1 1.7,1 1.5,0.6 1.3,1 0.9,1 1.2,1.3 	"/>
	<polygon class="st0" points="4.1,1.8 4.5,1.6 4.9,1.8 4.8,1.3 5.1,1 4.7,1 4.5,0.6 4.3,1 3.9,1 4.2,1.3 	"/>
	<polygon class="st0" points="7.1,1.8 7.5,1.6 7.9,1.8 7.8,1.3 8.1,1 7.7,1 7.5,0.6 7.3,1 6.9,1 7.2,1.3 	"/>
	<polygon class="st0" points="10.1,1.8 10.5,1.6 10.9,1.8 10.8,1.3 11.1,1 10.7,1 10.5,0.6 10.3,1 9.9,1 10.2,1.3 	"/>
	<polygon class="st0" points="13.1,1.8 13.5,1.6 13.9,1.8 13.8,1.3 14.1,1 13.7,1 13.5,0.6 13.3,1 12.9,1 13.2,1.3 	"/>
	<polygon class="st0" points="16.1,1.8 16.5,1.6 16.9,1.8 16.8,1.3 17.1,1 16.7,1 16.5,0.6 16.3,1 15.9,1 16.2,1.3 	"/>
	<polygon class="st0" points="3.3,2.4 3.1,2 2.9,2.4 2.5,2.4 2.8,2.7 2.7,3.1 3.1,2.9 3.5,3.1 3.4,2.7 3.7,2.4 	"/>
	<polygon class="st0" points="6.3,2.4 6.1,2 5.9,2.4 5.5,2.4 5.8,2.7 5.7,3.1 6.1,2.9 6.5,3.1 6.4,2.7 6.7,2.4 	"/>
	<polygon class="st0" points="9.3,2.4 9.1,2 8.9,2.4 8.5,2.4 8.8,2.7 8.7,3.1 9.1,2.9 9.5,3.1 9.4,2.7 9.7,2.4 	"/>
	<polygon class="st0" points="12.3,2.4 12.1,2 11.9,2.4 11.5,2.4 11.8,2.7 11.7,3.1 12.1,2.9 12.5,3.1 12.4,2.7 12.7,2.4 	"/>
	<polygon class="st0" points="15.3,2.4 15.1,2 14.9,2.4 14.5,2.4 14.8,2.7 14.7,3.1 15.1,2.9 15.5,3.1 15.4,2.7 15.7,2.4 	"/>
	<polygon class="st0" points="2.7,5.9 3.1,5.7 3.5,5.9 3.4,5.5 3.4,5.5 3.7,5.2 3.3,5.1 3.1,4.7 2.9,5.1 2.5,5.2 2.8,5.5 2.8,5.5 	
		"/>
	<polygon class="st0" points="5.7,5.9 6.1,5.7 6.5,5.9 6.4,5.5 6.4,5.5 6.7,5.2 6.3,5.1 6.1,4.7 5.9,5.1 5.5,5.2 5.8,5.5 5.8,5.5 	
		"/>
	<polygon class="st0" points="8.7,5.9 9.1,5.7 9.5,5.9 9.4,5.5 9.4,5.5 9.7,5.2 9.3,5.1 9.1,4.7 8.9,5.1 8.5,5.2 8.8,5.5 8.8,5.5 	
		"/>
	<polygon class="st0" points="11.7,5.9 12.1,5.7 12.5,5.9 12.4,5.5 12.4,5.5 12.7,5.2 12.3,5.1 12.1,4.7 11.9,5.1 11.5,5.2 
		11.8,5.5 11.8,5.5 	"/>
	<polygon class="st0" points="15.7,5.2 15.3,5.1 15.1,4.7 14.9,5.1 14.5,5.2 14.8,5.5 14.8,5.5 14.7,5.9 15.1,5.7 15.5,5.9 
		15.4,5.5 15.4,5.5 	"/>
	<polygon class="st0" points="3.3,7.9 3.1,7.5 2.9,7.9 2.5,7.9 2.8,8.2 2.7,8.6 3.1,8.4 3.5,8.6 3.4,8.2 3.7,7.9 	"/>
	<polygon class="st0" points="6.3,7.9 6.1,7.5 5.9,7.9 5.5,7.9 5.8,8.2 5.7,8.6 6.1,8.4 6.5,8.6 6.4,8.2 6.7,7.9 	"/>
	<polygon class="st0" points="9.3,7.9 9.1,7.5 8.9,7.9 8.5,7.9 8.8,8.2 8.7,8.6 9.1,8.4 9.5,8.6 9.4,8.2 9.7,7.9 	"/>
	<polygon class="st0" points="12.3,7.9 12.1,7.5 11.9,7.9 11.5,7.9 11.8,8.2 11.7,8.6 12.1,8.4 12.5,8.6 12.4,8.2 12.7,7.9 	"/>
	<polygon class="st0" points="15.3,7.9 15.1,7.5 14.9,7.9 14.5,7.9 14.8,8.2 14.7,8.6 15.1,8.4 15.5,8.6 15.4,8.2 15.7,7.9 	"/>
	<polygon class="st0" points="2.7,11.4 3.1,11.2 3.5,11.4 3.4,11 3.7,10.7 3.3,10.6 3.1,10.2 2.9,10.6 2.5,10.7 2.8,11 	"/>
	<polygon class="st0" points="6.3,10.6 6.1,10.2 5.9,10.6 5.5,10.7 5.8,11 5.7,11.4 6.1,11.2 6.5,11.4 6.4,11 6.7,10.7 	"/>
	<polygon class="st0" points="9.3,10.6 9.1,10.2 8.9,10.6 8.5,10.7 8.8,11 8.7,11.4 9.1,11.2 9.5,11.4 9.4,11 9.7,10.7 	"/>
	<polygon class="st0" points="12.3,10.6 12.1,10.2 11.9,10.6 11.5,10.7 11.8,11 11.7,11.4 12.1,11.2 12.5,11.4 12.4,11 12.7,10.7 	
		"/>
	<polygon class="st0" points="15.3,10.6 15.1,10.2 14.9,10.6 14.5,10.7 14.8,11 14.7,11.4 15.1,11.2 15.5,11.4 15.4,11 15.7,10.7 	
		"/>
	<polygon class="st0" points="1.7,3.7 1.5,3.3 1.3,3.7 0.9,3.8 1.2,4.1 1.1,4.5 1.5,4.3 1.9,4.5 1.8,4.1 2.1,3.8 	"/>
	<polygon class="st0" points="4.7,3.7 4.5,3.3 4.3,3.7 3.9,3.8 4.2,4.1 4.1,4.5 4.5,4.3 4.9,4.5 4.8,4.1 5.1,3.8 	"/>
	<polygon class="st0" points="7.7,3.7 7.5,3.3 7.3,3.7 6.9,3.8 7.2,4.1 7.1,4.5 7.5,4.3 7.9,4.5 7.8,4.1 8.1,3.8 	"/>
	<polygon class="st0" points="10.7,3.7 10.5,3.3 10.3,3.7 9.9,3.8 10.2,4.1 10.1,4.5 10.5,4.3 10.9,4.5 10.8,4.1 11.1,3.8 	"/>
	<polygon class="st0" points="13.7,3.7 13.5,3.3 13.3,3.7 12.9,3.8 13.2,4.1 13.1,4.5 13.5,4.3 13.9,4.5 13.8,4.1 14.1,3.8 	"/>
	<polygon class="st0" points="16.7,3.7 16.5,3.3 16.3,3.7 15.9,3.8 16.2,4.1 16.1,4.5 16.5,4.3 16.9,4.5 16.8,4.1 17.1,3.8 	"/>
	<polygon class="st0" points="1.7,6.5 1.5,6.1 1.3,6.5 0.9,6.5 1.2,6.8 1.1,7.3 1.5,7.1 1.9,7.3 1.8,6.8 2.1,6.5 	"/>
	<polygon class="st0" points="4.1,7.3 4.5,7.1 4.9,7.3 4.8,6.8 5.1,6.5 4.7,6.5 4.5,6.1 4.3,6.5 3.9,6.5 4.2,6.8 	"/>
	<polygon class="st0" points="7.7,6.5 7.5,6.1 7.3,6.5 6.9,6.5 7.2,6.8 7.1,7.3 7.5,7.1 7.9,7.3 7.8,6.8 8.1,6.5 	"/>
	<polygon class="st0" points="10.7,6.5 10.5,6.1 10.3,6.5 9.9,6.5 10.2,6.8 10.1,7.3 10.5,7.1 10.9,7.3 10.8,6.8 11.1,6.5 	"/>
	<polygon class="st0" points="13.7,6.5 13.5,6.1 13.3,6.5 12.9,6.5 13.2,6.8 13.1,7.3 13.5,7.1 13.9,7.3 13.8,6.8 14.1,6.5 	"/>
	<polygon class="st0" points="16.7,6.5 16.5,6.1 16.3,6.5 15.9,6.5 16.2,6.8 16.1,7.3 16.5,7.1 16.9,7.3 16.8,6.8 17.1,6.5 	"/>
	<polygon class="st0" points="1.1,10 1.5,9.8 1.9,10 1.8,9.6 1.9,9.5 2.1,9.3 1.7,9.2 1.5,8.8 1.3,9.2 0.9,9.3 1.1,9.5 1.2,9.6 	"/>
	<polygon class="st0" points="4.1,10 4.5,9.8 4.9,10 4.8,9.6 4.9,9.5 5.1,9.3 4.7,9.2 4.5,8.8 4.3,9.2 3.9,9.3 4.1,9.5 4.2,9.6 	"/>
	<polygon class="st0" points="7.1,10 7.5,9.8 7.9,10 7.8,9.6 7.9,9.5 8.1,9.3 7.7,9.2 7.5,8.8 7.3,9.2 6.9,9.3 7.1,9.5 7.2,9.6 	"/>
	<polygon class="st0" points="10.1,10 10.5,9.8 10.9,10 10.8,9.6 10.9,9.5 11.1,9.3 10.7,9.2 10.5,8.8 10.3,9.2 9.9,9.3 10.1,9.5 
		10.2,9.6 	"/>
	<polygon class="st0" points="13.1,10 13.5,9.8 13.9,10 13.8,9.6 13.9,9.5 14.1,9.3 13.7,9.2 13.5,8.8 13.3,9.2 12.9,9.3 13.1,9.5 
		13.2,9.6 	"/>
	<polygon class="st0" points="17.1,9.3 16.7,9.2 16.5,8.8 16.3,9.2 15.9,9.3 16.1,9.5 16.2,9.6 16.1,10 16.5,9.8 16.9,10 16.8,9.6 
		16.9,9.5 	"/>
	<polygon class="st0" points="1.7,12 1.5,11.6 1.3,12 0.9,12 1.2,12.3 1.1,12.8 1.5,12.6 1.9,12.8 1.8,12.3 2.1,12 	"/>
	<polygon class="st0" points="4.7,12 4.5,11.6 4.3,12 3.9,12 4.2,12.3 4.1,12.8 4.5,12.6 4.9,12.8 4.8,12.3 5.1,12 	"/>
	<polygon class="st0" points="7.7,12 7.5,11.6 7.3,12 6.9,12 7.2,12.3 7.1,12.8 7.5,12.6 7.9,12.8 7.8,12.3 8.1,12 	"/>
	<polygon class="st0" points="10.7,12 10.5,11.6 10.3,12 9.9,12 10.2,12.3 10.1,12.8 10.5,12.6 10.9,12.8 10.8,12.3 11.1,12 	"/>
	<polygon class="st0" points="13.7,12 13.5,11.6 13.3,12 12.9,12 13.2,12.3 13.1,12.8 13.5,12.6 13.9,12.8 13.8,12.3 14.1,12 	"/>
	<polygon class="st0" points="16.7,12 16.5,11.6 16.3,12 15.9,12 16.2,12.3 16.1,12.8 16.5,12.6 16.9,12.8 16.8,12.3 17.1,12 	"/>
</g>
</svg>
